<?xml version="1.0"?>
<svg xmlns="http://www.w3.org/2000/svg" width="219" height="219" viewBox="0 0 219 219">
  <rect x="32.00" y="32.00" width="27.00" height="27.00" rx="2.00" fill="#6CB4FF"/>
  <rect x="64.00" y="32.00" width="27.00" height="27.00" rx="2.00" fill="#6CB4FF" fill-opacity="0.888"/>
  <rect x="96.00" y="32.00" width="27.00" height="27.00" rx="2.00" fill="#6CB4FF" fill-opacity="0.775"/>
  <rect x="128.00" y="32.00" width="27.00" height="27.00" rx="2.00" fill="#6CB4FF" fill-opacity="0.663"/>
  <clipPath id="c16000_3200"><rect x="160.00" y="32.00" width="27.00" height="27.00" rx="2.00"/></clipPath>
  <g clip-path="url(#c16000_3200)">
  <polygon points="160.00,32.00 187.00,32.00 160.00,59.00" fill="#6CB4FF" fill-opacity="0.550"/>
  <polygon points="187.00,32.00 187.00,59.00 160.00,59.00" fill="#D97757" fill-opacity="0.550"/>
  </g>
  <rect x="32.00" y="64.00" width="27.00" height="27.00" rx="2.00" fill="#6CB4FF" fill-opacity="0.888"/>
  <rect x="64.00" y="64.00" width="27.00" height="27.00" rx="2.00" fill="#6CB4FF" fill-opacity="0.775"/>
  <rect x="96.00" y="64.00" width="27.00" height="27.00" rx="2.00" fill="#6CB4FF" fill-opacity="0.663"/>
  <clipPath id="c12800_6400"><rect x="128.00" y="64.00" width="27.00" height="27.00" rx="2.00"/></clipPath>
  <g clip-path="url(#c12800_6400)">
  <polygon points="128.00,64.00 155.00,64.00 128.00,91.00" fill="#6CB4FF" fill-opacity="0.550"/>
  <polygon points="155.00,64.00 155.00,91.00 128.00,91.00" fill="#D97757" fill-opacity="0.550"/>
  </g>
  <rect x="160.00" y="64.00" width="27.00" height="27.00" rx="2.00" fill="#D97757" fill-opacity="0.663"/>
  <rect x="32.00" y="96.00" width="27.00" height="27.00" rx="2.00" fill="#6CB4FF" fill-opacity="0.775"/>
  <rect x="64.00" y="96.00" width="27.00" height="27.00" rx="2.00" fill="#6CB4FF" fill-opacity="0.663"/>
  <clipPath id="c9600_9600"><rect x="96.00" y="96.00" width="27.00" height="27.00" rx="2.00"/></clipPath>
  <g clip-path="url(#c9600_9600)">
  <polygon points="96.00,96.00 123.00,96.00 96.00,123.00" fill="#6CB4FF" fill-opacity="0.550"/>
  <polygon points="123.00,96.00 123.00,123.00 96.00,123.00" fill="#D97757" fill-opacity="0.550"/>
  </g>
  <rect x="128.00" y="96.00" width="27.00" height="27.00" rx="2.00" fill="#D97757" fill-opacity="0.663"/>
  <rect x="160.00" y="96.00" width="27.00" height="27.00" rx="2.00" fill="#D97757" fill-opacity="0.775"/>
  <rect x="32.00" y="128.00" width="27.00" height="27.00" rx="2.00" fill="#6CB4FF" fill-opacity="0.663"/>
  <clipPath id="c6400_12800"><rect x="64.00" y="128.00" width="27.00" height="27.00" rx="2.00"/></clipPath>
  <g clip-path="url(#c6400_12800)">
  <polygon points="64.00,128.00 91.00,128.00 64.00,155.00" fill="#6CB4FF" fill-opacity="0.550"/>
  <polygon points="91.00,128.00 91.00,155.00 64.00,155.00" fill="#D97757" fill-opacity="0.550"/>
  </g>
  <rect x="96.00" y="128.00" width="27.00" height="27.00" rx="2.00" fill="#D97757" fill-opacity="0.663"/>
  <rect x="128.00" y="128.00" width="27.00" height="27.00" rx="2.00" fill="#D97757" fill-opacity="0.775"/>
  <rect x="160.00" y="128.00" width="27.00" height="27.00" rx="2.00" fill="#D97757" fill-opacity="0.888"/>
  <clipPath id="c3200_16000"><rect x="32.00" y="160.00" width="27.00" height="27.00" rx="2.00"/></clipPath>
  <g clip-path="url(#c3200_16000)">
  <polygon points="32.00,160.00 59.00,160.00 32.00,187.00" fill="#6CB4FF" fill-opacity="0.550"/>
  <polygon points="59.00,160.00 59.00,187.00 32.00,187.00" fill="#D97757" fill-opacity="0.550"/>
  </g>
  <rect x="64.00" y="160.00" width="27.00" height="27.00" rx="2.00" fill="#D97757" fill-opacity="0.663"/>
  <rect x="96.00" y="160.00" width="27.00" height="27.00" rx="2.00" fill="#D97757" fill-opacity="0.775"/>
  <rect x="128.00" y="160.00" width="27.00" height="27.00" rx="2.00" fill="#D97757" fill-opacity="0.888"/>
  <rect x="160.00" y="160.00" width="27.00" height="27.00" rx="2.00" fill="#D97757"/>
</svg>
