<?xml version="1.0"?>
<svg xmlns="http://www.w3.org/2000/svg" width="219" height="219" viewBox="0 0 219 219">
  <rect x="32.00" y="32.00" width="27.00" height="27.00" rx="2.00" fill="#1B1F1C" fill-opacity="0.533"/>
  <rect x="64.00" y="32.00" width="27.00" height="27.00" rx="2.00" fill="#1B1F1C"/>
  <rect x="96.00" y="32.00" width="27.00" height="27.00" rx="2.00" fill="#1B1F1C" fill-opacity="0.150"/>
  <rect x="128.00" y="32.00" width="27.00" height="27.00" rx="2.00" fill="#1B1F1C" fill-opacity="0.150"/>
  <rect x="160.00" y="32.00" width="27.00" height="27.00" rx="2.00" fill="#1B1F1C" fill-opacity="0.150"/>
  <rect x="32.00" y="64.00" width="27.00" height="27.00" rx="2.00" fill="#1B1F1C" fill-opacity="0.150"/>
  <rect x="64.00" y="64.00" width="27.00" height="27.00" rx="2.00" fill="#1B1F1C" fill-opacity="0.533"/>
  <rect x="96.00" y="64.00" width="27.00" height="27.00" rx="2.00" fill="#1B1F1C"/>
  <rect x="128.00" y="64.00" width="27.00" height="27.00" rx="2.00" fill="#1B1F1C" fill-opacity="0.150"/>
  <rect x="160.00" y="64.00" width="27.00" height="27.00" rx="2.00" fill="#1B1F1C" fill-opacity="0.150"/>
  <rect x="32.00" y="96.00" width="27.00" height="27.00" rx="2.00" fill="#1B1F1C" fill-opacity="0.150"/>
  <rect x="64.00" y="96.00" width="27.00" height="27.00" rx="2.00" fill="#1B1F1C" fill-opacity="0.150"/>
  <rect x="96.00" y="96.00" width="27.00" height="27.00" rx="2.00" fill="#1B1F1C" fill-opacity="0.533"/>
  <rect x="128.00" y="96.00" width="27.00" height="27.00" rx="2.00" fill="#1B1F1C"/>
  <rect x="160.00" y="96.00" width="27.00" height="27.00" rx="2.00" fill="#1B1F1C" fill-opacity="0.150"/>
  <rect x="32.00" y="128.00" width="27.00" height="27.00" rx="2.00" fill="#1B1F1C" fill-opacity="0.150"/>
  <rect x="64.00" y="128.00" width="27.00" height="27.00" rx="2.00" fill="#1B1F1C" fill-opacity="0.533"/>
  <rect x="96.00" y="128.00" width="27.00" height="27.00" rx="2.00" fill="#1B1F1C"/>
  <rect x="128.00" y="128.00" width="27.00" height="27.00" rx="2.00" fill="#1B1F1C" fill-opacity="0.150"/>
  <rect x="160.00" y="128.00" width="27.00" height="27.00" rx="2.00" fill="#1B1F1C" fill-opacity="0.150"/>
  <rect x="32.00" y="160.00" width="27.00" height="27.00" rx="2.00" fill="#1B1F1C" fill-opacity="0.533"/>
  <rect x="64.00" y="160.00" width="27.00" height="27.00" rx="2.00" fill="#1B1F1C"/>
  <rect x="96.00" y="160.00" width="27.00" height="27.00" rx="2.00" fill="#1B1F1C" fill-opacity="0.150"/>
  <rect x="128.00" y="160.00" width="27.00" height="27.00" rx="2.00" fill="#1B1F1C" fill-opacity="0.150"/>
  <rect x="160.00" y="160.00" width="27.00" height="27.00" rx="2.00" fill="#1B1F1C" fill-opacity="0.150"/>
</svg>
